<?xml version="1.0" standalone="no"?>
<!DOCTYPE svg PUBLIC "-//W3C//DTD SVG 20010904//EN"
 "http://www.w3.org/TR/2001/REC-SVG-20010904/DTD/svg10.dtd">
<svg version="1.0" xmlns="http://www.w3.org/2000/svg"
 width="208.000000pt" height="121.000000pt" viewBox="0 0 208.000000 121.000000"
 preserveAspectRatio="xMidYMid meet">
<metadata>
Created by potrace 1.15, written by Peter Selinger 2001-2017
</metadata>
<g transform="translate(0.000000,121.000000) scale(0.100000,-0.100000)"
fill="#000000" stroke="none">
<path d="M662 964 l-84 -144 -154 0 -154 0 0 -25 0 -24 139 -3 138 -3 -36 -60
-36 -60 -188 -3 c-178 -2 -187 -3 -187 -22 0 -19 9 -20 187 -22 l188 -3 36
-60 36 -60 -138 -3 -139 -3 0 -24 0 -25 154 0 154 0 85 -145 c77 -132 85 -143
102 -131 17 12 9 29 -113 239 -73 124 -132 231 -132 237 0 6 59 112 130 235
72 122 130 225 130 228 0 4 -8 10 -17 15 -15 8 -30 -11 -101 -134z"/>
<path d="M1330 1095 c-10 -12 10 -53 119 -239 72 -123 131 -230 131 -236 0 -6
-59 -113 -132 -236 -125 -214 -130 -226 -113 -242 10 -10 19 -13 21 -7 3 6 40
71 83 145 l79 135 156 3 156 3 0 24 0 25 -139 0 -140 0 37 65 37 65 188 0
c180 0 187 1 187 20 0 19 -7 20 -187 20 l-188 0 -37 65 -37 65 140 0 139 0 0
25 0 24 -156 3 -156 3 -82 142 c-44 78 -84 143 -87 143 -4 0 -12 -7 -19 -15z"/>
<path d="M1090 625 l0 -175 100 0 c81 0 100 3 100 15 0 11 -18 15 -82 17 l-83
3 -3 158 c-2 130 -5 157 -17 157 -13 0 -15 -27 -15 -175z"/>
</g>
</svg>
